<?xml version="1.0" encoding="UTF-8"?><svg id="Layer_1" xmlns="http://www.w3.org/2000/svg" viewBox="0 0 1672.16 357.93"><defs><style>.cls-1{fill:#674b3d;}.cls-1,.cls-2,.cls-3,.cls-4,.cls-5,.cls-6,.cls-7,.cls-8,.cls-9,.cls-10,.cls-11,.cls-12,.cls-13,.cls-14,.cls-15,.cls-16,.cls-17,.cls-18,.cls-19,.cls-20,.cls-21,.cls-22,.cls-23,.cls-24,.cls-25,.cls-26,.cls-27,.cls-28,.cls-29,.cls-30,.cls-31,.cls-32,.cls-33,.cls-34,.cls-35,.cls-36,.cls-37,.cls-38,.cls-39,.cls-40,.cls-41,.cls-42,.cls-43,.cls-44,.cls-45,.cls-46,.cls-47,.cls-48,.cls-49,.cls-50,.cls-51,.cls-52,.cls-53,.cls-54,.cls-55,.cls-56,.cls-57,.cls-58,.cls-59,.cls-60,.cls-61,.cls-62,.cls-63,.cls-64,.cls-65,.cls-66,.cls-67,.cls-68,.cls-69,.cls-70,.cls-71,.cls-72,.cls-73,.cls-74,.cls-75,.cls-76,.cls-77,.cls-78{fill-rule:evenodd;}.cls-1,.cls-2,.cls-3,.cls-4,.cls-5,.cls-6,.cls-7,.cls-8,.cls-9,.cls-10,.cls-11,.cls-12,.cls-13,.cls-14,.cls-15,.cls-16,.cls-17,.cls-18,.cls-19,.cls-20,.cls-21,.cls-22,.cls-23,.cls-24,.cls-25,.cls-26,.cls-27,.cls-28,.cls-29,.cls-30,.cls-31,.cls-32,.cls-33,.cls-34,.cls-35,.cls-36,.cls-37,.cls-38,.cls-39,.cls-40,.cls-41,.cls-42,.cls-43,.cls-44,.cls-45,.cls-46,.cls-47,.cls-48,.cls-49,.cls-50,.cls-51,.cls-52,.cls-53,.cls-54,.cls-55,.cls-56,.cls-57,.cls-58,.cls-59,.cls-60,.cls-61,.cls-62,.cls-63,.cls-64,.cls-65,.cls-66,.cls-67,.cls-68,.cls-69,.cls-70,.cls-71,.cls-72,.cls-73,.cls-74,.cls-75,.cls-76,.cls-77,.cls-78,.cls-79,.cls-80{stroke-width:0px;}.cls-2{fill:#181315;}.cls-3{fill:#181517;}.cls-4{fill:#41312b;}.cls-5{fill:#1a1316;}.cls-6{fill:#361a1b;}.cls-7{fill:#438aba;}.cls-8{fill:#4395cb;}.cls-9{fill:#371b1b;}.cls-10{fill:#3d8dc1;}.cls-11{fill:#9c6f57;}.cls-12{fill:#42312b;}.cls-13{fill:#1b1819;}.cls-14{fill:#1b1718;}.cls-15{fill:#242124;}.cls-16{fill:#241d1d;}.cls-17{fill:#252021;}.cls-18{fill:#171416;}.cls-19{fill:#4c3830;}.cls-20{fill:#29201f;}.cls-21{fill:#272324;}.cls-22{fill:#584036;}.cls-23{fill:#594136;}.cls-24{fill:#381b1b;}.cls-25{fill:#5c4338;}.cls-26{fill:#2d2321;}.cls-27{fill:#48362e;}.cls-28{fill:#2d2727;}.cls-29{fill:#49362e;}.cls-30{fill:#352925;}.cls-31{fill:#2e2422;}.cls-32{fill:#4e3931;}.cls-33{fill:#4f3a31;}.cls-34{fill:#281f1e;}.cls-35{fill:#775645;}.cls-36{fill:#795746;}.cls-37{fill:#60463a;}.cls-38{fill:#604639;}.cls-39{fill:#5f5d60;}.cls-40{fill:#755444;}.cls-41{fill:#949495;}.cls-42{fill:#715242;}.cls-43{fill:#4494c8;}.cls-44{fill:#706662;}.cls-45{fill:#ae7b5f;}.cls-46{fill:#ae7c60;}.cls-47{fill:#a7775c;}.cls-48{fill:#a6765c;}.cls-49{fill:#ac7a5e;}.cls-50{fill:#bcbbbc;}.cls-51{fill:#a4745a;}.cls-52{fill:#ad7a5f;}.cls-53{fill:#f4f3f2;}.cls-54{fill:#f5ac82;}.cls-55{fill:#f5f5f5;}.cls-56{fill:#eea77e;}.cls-57{fill:#e2e7ea;}.cls-58{fill:#f1f0f0;}.cls-59{fill:#664a3d;}.cls-60{fill:#654a3c;}.cls-61{fill:#996d55;}.cls-62{fill:#b6b6b7;}.cls-63{fill:#8b634e;}.cls-64{fill:#9d7057;}.cls-65{fill:#8c644f;}.cls-66{fill:#a09fa0;}.cls-67{fill:#a07259;}.cls-68{fill:#946a53;}.cls-69{fill:#87604c;}.cls-70{fill:#936952;}.cls-71{fill:#8b8a8c;}.cls-72{fill:#eca67d;}.cls-73{fill:#332724;}.cls-74{fill:#8e6f5f;}.cls-75{fill:#342824;}.cls-76{fill:#f2f1f1;}.cls-77{fill:#f2f3f4;}.cls-78{fill:#f6f5f5;}.cls-80{fill:#004fff;}</style></defs><path class="cls-3" d="m246.72,57.4c.77,5.3,1.11,10.63,1,16,.32,5.32,1.82,10.32,4.5,15,.89,9.43.39,18.76-1.5,28-1.96,4.06-3.46,8.39-4.5,13-.82,7.85-.66,15.51.5,23v15c-1.3,2.52-1.3,5.19,0,8,2.25-.87,4.58-1.21,7-1,7.08,3.57,9.92,9.24,8.5,17-6.93,18.79-14.27,37.46-22,56-.82,1.32-1.98,1.99-3.5,2h-6c-.33,2.67-.67,5.33-1,8-11.66,33.47-29.33,63.3-53,89.5-13.09,8.95-27.59,12.45-43.5,10.5-16.54,1.71-31.37-2.46-44.5-12.5-17.02-16.25-31.52-34.42-43.5-54.5-4.87-9.12-8.04-18.79-9.5-29,.21-2.99-.46-5.66-2-8v-4c-3.02.17-6.02,0-9-.5-.56-.38-.89-.88-1-1.5.33-1,1-1.67,2-2,6.49,2.03,8.82-.47,7-7.5-.67-17.71-2.84-35.21-6.5-52.5-4.12-3.31-8.62-5.98-13.5-8-3.9,1.24-6.9,3.57-9,7v-4c2.36-5.15,6.36-6.98,12-5.5,1.85.84,3.68,1.67,5.5,2.5-1.09-6.4-1.93-12.9-2.5-19.5,1.66-9.63,1.33-19.13-1-28.5.09-2.65-.58-4.99-2-7-3.34-10.1-2.51-19.76,2.5-29-.68-12.14,1.32-23.8,6-35,1.61-3.27,3.61-6.27,6-9,4.31-15.48,14.48-23.81,30.5-25,6.08-7.05,13.75-11.55,23-13.5,12.24-2.64,24.57-3.14,37-1.5,10.97-2.93,21.97-5.77,33-8.5,18.21-2.69,35.21.64,51,10,13.22,11.89,25.72,24.39,37.5,37.5,2.04,2.74,3.54,5.74,4.5,9Z"/><path class="cls-24" d="m197.72,11.4c5.76,2.23,10.59,5.9,14.5,11,.53,3.93-.31,7.6-2.5,11,.33.33.67.67,1,1,2.37-2.2,4.87-4.2,7.5-6,3.99,2.65,7.32,5.99,10,10,2.36,6.31.86,11.65-4.5,16,1.22,1.11,2.56,1.28,4,.5,3-2.46,5.66-5.3,8-8.5,8.53,7.89,11.37,17.55,8.5,29-1.96,5.31-4.79,10.14-8.5,14.5-.83.69-1.5.52-2-.5,5.92-10.49,7.42-21.49,4.5-33,.92,15.93-4.08,29.6-15,41-.26-2.52.41-4.85,2-7,.67-5,.67-10,0-15-4.41-11.15-9.08-22.15-14-33-.67,2.67-.67,5.33,0,8,1.92,9.52,3.76,19.02,5.5,28.5.05,5.17-1.12,10.01-3.5,14.5-.16-3.79-.83-7.45-2-11-4.38-4.71-8.38-9.71-12-15-1.44-5.26-1.77-10.6-1-16,1.5-8.53,3-17.03,4.5-25.5-.02-2.93-.52-5.76-1.5-8.5-1.44-1.89-2.61-3.89-3.5-6Z"/><path class="cls-24" d="m170.72,4.4c6.19-.08,12.19.92,18,3,3.41,3.44,4.74,7.61,4,12.5-.4,6.86-2.23,13.36-5.5,19.5.48-6.29.48-12.63,0-19-1.4-3.13-3.07-6.13-5-9,.02,2.74.69,5.41,2,8,.67,6.33.67,12.67,0,19-2.9,6.29-5.07,12.79-6.5,19.5.97,6.66,4.14,12.16,9.5,16.5,3.96,6.48,5.63,13.48,5,21-4.66,3.83-9.66,7.16-15,10-3.26,4.44-4.92,9.44-5,15-1.91-1.32-2.74-3.15-2.5-5.5,3.53-10.43.2-17.6-10-21.5-4.52-10.74-8.36-21.74-11.5-33l-1-1c-.91,7.34.25,14.34,3.5,21-.5.33-1,.67-1.5,1-9.23-5.26-14.56-13.26-16-24-1.76-6.58-3.1-13.25-4-20-6.27,13.39-5.94,26.72,1,40,2.13,3.13,4.63,5.96,7.5,8.5-7.01-.25-12.84-3.09-17.5-8.5-11.3-22.67-9.63-44.34,5-65,2.01-1.34,4.18-1.84,6.5-1.5-4.65,5.47-8.15,11.63-10.5,18.5-1.32,2.91-1.65,5.91-1,9,4.2-12.92,11.7-23.42,22.5-31.5,1.33-.67,2.67-.67,4,0-10.23,13.49-12.73,28.32-7.5,44.5.22-8.95,2.38-17.28,6.5-25,.78,5.68,1.61,11.34,2.5,17,3.81,8.95,8.14,17.61,13,26,.28,8.51,3.44,15.68,9.5,21.5,1.26.98,2.59,1.32,4,1-3.13-3.75-5.63-7.92-7.5-12.5-.15-12.82-2.65-25.15-7.5-37,.17-.33.33-.67.5-1,1.67,1.67,3.33,3.33,5,5-7.18-14.97-5.35-28.98,5.5-42Z"/><path class="cls-9" d="m101.72,11.4c7.03,0,14.03.5,21,1.5-14.16,13.16-20,29.33-17.5,48.5,1.78,5.98,3.11,11.98,4,18-3.07,4.21-6.9,5.04-11.5,2.5l-11.5-11.5c-2.62-4.28-5.62-8.28-9-12-1.58,8.45-.08,16.29,4.5,23.5-.33.17-.67.33-1,.5-5.77-8.73-8.6-18.39-8.5-29-3.99,14.35-.16,26.19,11.5,35.5-5.85-1.49-10.35-4.99-13.5-10.5-4.78-8.85-8.28-18.19-10.5-28-.75.88-1.25,1.88-1.5,3-.67,6.33-.67,12.67,0,19,1.54,6.45,3.37,12.78,5.5,19-3.39.13-6.72.3-10,.5-7.7-9.22-14.53-19.06-20.5-29.5-.64,14.08,3.52,26.58,12.5,37.5-3.28-1.24-6.11-3.4-8.5-6.5-2.42-3.84-5.09-7.51-8-11-.22,7.96,1.28,15.63,4.5,23-.33.67-.67,1.33-1,2-9.72-9.66-12.89-21.32-9.5-35,.92-7.11,3.59-13.44,8-19,4.04,9.4,10.04,17.4,18,24-2.3-6.89-4.63-13.89-7-21-.67-5.33-.67-10.67,0-16,1.15,6.77,3.48,13.11,7,19-.4-6.98-.4-13.98,0-21,.33-.67.67-1.33,1-2,.11,4.56,1.11,8.89,3,13,1.99-6.96,3.82-13.96,5.5-21,3.97-1.45,7.31-3.95,10-7.5,1.55-1.29,3.22-1.96,5-2-8.47,12.52-10.3,26.02-5.5,40.5-1.63-17.07,4.54-30.41,18.5-40,.33.33.67.67,1,1-4.16,10.82-3.66,21.49,1.5,32-2.77-15.86,1.4-29.53,12.5-41Z"/><path class="cls-5" d="m102.72,18.4c.6.24.93.74,1,1.5-3.58,6.89-5.24,14.22-5,22,.99,10.96,2.49,21.79,4.5,32.5-6.45-12.9-8.78-26.57-7-41,1.69-5.24,3.85-10.24,6.5-15Z"/><path class="cls-50" d="m246.72,57.4c1.51,2.86,2.17,6.02,2,9.5,0,2.36-.34,4.53-1,6.5.11-5.37-.23-10.7-1-16Z"/><path class="cls-6" d="m245.72,83.4c1.9,1.77,3.06,4.1,3.5,7,.67,6,.67,12,0,18-6.21,7.88-13.87,13.88-23,18-1.3-2.44-2.47-4.94-3.5-7.5,12.8-8.43,20.47-20.26,23-35.5Z"/><path class="cls-54" d="m132.72,96.4c1.78,1.1,3.78,1.93,6,2.5,5.18.82,10.18.65,15-.5,4.95-2.18,9.11-1.18,12.5,3,1.01,2.03,1.51,4.2,1.5,6.5-1.83,5.1-1.33,9.94,1.5,14.5.82,1.32,1.98,1.99,3.5,2,1.14,1.71,2.8,2.38,5,2-.63-4.64-.96-9.31-1-14,1.01-2.53,2.67-4.7,5-6.5,4.31-1.43,8.14-3.59,11.5-6.5,6.42,4.62,13.58,7.12,21.5,7.5,4.55,10.38,8.71,20.88,12.5,31.5.13,12,.13,24,0,36,1.43,8.07,3.93,15.73,7.5,23-1.44,11.29-2.44,22.63-3,34-1.62,2.67-2.29,5.67-2,9-2.3,4.6-4.63,9.27-7,14-2.4,3.47-4.24,7.14-5.5,11,2.48-2.64,4.32-5.64,5.5-9,1.72-1.75,3.22-3.75,4.5-6-2.93,12.45-7.26,24.45-13,36-6.83,12.33-14.17,24.33-22,36-5.74,10.4-13.57,18.9-23.5,25.5-8.5,4.36-17.5,6.03-27,5-2.52-2.22-4.69-4.72-6.5-7.5-1.95,5.3-5.61,8.3-11,9-10.83-.17-20.67-3.33-29.5-9.5-8.5-7.17-16.33-15-23.5-23.5-10.54-13.55-19.88-27.88-28-43-3.78-13.79-6.28-27.79-7.5-42-.16-1.37.01-2.71.5-4,3.39,8.45,7.06,16.78,11,25-2.94-10.97-6.77-21.64-11.5-32,.07-1.46-.27-2.79-1-4,.29-9.55-.38-18.88-2-28-.16-2.36,0-4.69.5-7,3.72-4.77,6.39-10.11,8-16,.17-9.18.67-18.18,1.5-27,1.84-6.41,2.84-13.08,3-20,1.08-7.98,3.24-15.64,6.5-23,1.87-2.21,4.04-4.04,6.5-5.5,12.54,1.96,25.2,2.62,38,2,5.33-2.92,10.83-5.42,16.5-7.5,6.42,2.45,12.92,4.79,19.5,7Z"/><path class="cls-1" d="m132.72,96.4c6.88,1.66,13.88,2.32,21,2-4.82,1.15-9.82,1.32-15,.5-2.22-.57-4.22-1.4-6-2.5Z"/><path class="cls-2" d="m246.72,100.4c-.46,9.34-5.46,15.51-15,18.5-1.67.67-3.33.67-5,0,9.4-3.24,16.07-9.4,20-18.5Z"/><path class="cls-25" d="m176.72,112.4c.04,4.69.37,9.36,1,14-2.2.38-3.86-.29-5-2,1.08.04,2.08.37,3,1,.33-.5.67-1,1-1.5-1.26-3.98-1.26-7.81,0-11.5Z"/><path class="cls-33" d="m62.72,117.4c7.4-1.96,14.4-.79,21,3.5-6.79-1.94-13.79-3.11-21-3.5Z"/><path class="cls-31" d="m60.72,125.4c8.72-1.02,16.72.81,24,5.5-8.89-1.46-17.89-2.46-27-3,1.07-.85,2.07-1.68,3-2.5Z"/><path class="cls-29" d="m66.72,121.4c8.3-.37,15.64,2.46,22,8.5-6.82-3.67-14.16-6.51-22-8.5Z"/><path class="cls-71" d="m15.72,122.4c1.42,2.01,2.09,4.35,2,7-1.42-2.01-2.09-4.35-2-7Z"/><path class="cls-47" d="m45.72,123.4c-.16,6.92-1.16,13.59-3,20,.16-6.92,1.16-13.59,3-20Z"/><path class="cls-19" d="m191.72,129.4c7.15-1.12,13.48.55,19,5-.17.33-.33.67-.5,1-2.3-1.57-4.8-2.74-7.5-3.5-4.33-.33-8.67-.67-13-1,.92-.28,1.58-.78,2-1.5Z"/><path class="cls-12" d="m183.72,138.4h-6c-2.6-.14-4.93-.98-7-2.5.5-.17,1-.33,1.5-.5,2.31,1.35,4.81,2.02,7.5,2,8.7-1.46,17.37-1.29,26,.5,1.33.67,2.67,1.33,4,2-8.56-1.2-17.23-1.7-26-1.5Z"/><path class="cls-41" d="m250.72,116.4c-3.39,11.72-4.73,23.72-4,36-1.16-7.49-1.32-15.15-.5-23,1.04-4.61,2.54-8.94,4.5-13Z"/><path class="cls-70" d="m177.72,138.4h6c1.33.67,2.67,1.33,4,2-2.89-.31-5.55.03-8,1-2.42.31-4.76-.03-7-1,1.79-.67,3.46-1.34,5-2Z"/><path class="cls-22" d="m179.72,141.4c2.45-.97,5.11-1.31,8-1,6.18-.28,12.18.55,18,2.5-.83.17-1.67.33-2.5.5-7.77-1.36-15.61-2.02-23.5-2Z"/><path class="cls-18" d="m121.72,166.4c-1.67,1-3,2.33-4,4-3.1,1.51-6.43,2.18-10,2-12.67-1.67-25.34-3.34-38-5-5.65-.4-10.98.6-16,3-1.07-1.85-1.07-3.85,0-6,3.14-5.31,7.48-9.48,13-12.5,16.19-.55,32.19.95,48,4.5,3.69-.1,6.86-1.43,9.5-4,.45,4.89-.39,9.55-2.5,14Z"/><path class="cls-14" d="m208.72,166.4c-1.97-.66-4.14-1-6.5-1-4.1-.07-7.93.6-11.5,2-3.45.31-6.78,1.15-10,2.5-8.23,3.7-15.73,8.53-22.5,14.5-3.41,7.63-5.57,15.63-6.5,24,2.14,4.95,4.3,9.95,6.5,15-.22,7.31.95,14.31,3.5,21,.09,2.2.42,4.36,1,6.5-.57,1.61-1.24,3.11-2,4.5-.72,1.82-1.72,2.48-3,2,1.04-2.27,1.21-4.6.5-7-3.08-5.83-6.41-11.5-10-17-3.96-21.02-1.13-41.02,8.5-60-5.38-2.78-8.21-7.11-8.5-13,1.25,4.9,4.09,8.07,8.5,9.5-3-2.82-4.33-6.32-4-10.5,8.55-1.79,17.22-3.29,26-4.5,9-.67,18-.67,27,0,1.83,1.17,3.67,2.33,5.5,3.5.33-.67.67-1.33,1-2,3.08,2.86,5.08,6.19,6,10-.67-.67-1.33-1.33-2-2v4c-2.44-.85-4.94-1.52-7.5-2Z"/><path class="cls-38" d="m53.72,164.4c-1.07,2.15-1.07,4.15,0,6-.06.54-.39.88-1,1-1.4-6.9.43-12.9,5.5-18,.17.33.33.67.5,1-2.21,3.08-3.87,6.41-5,10Z"/><path class="cls-27" d="m121.72,170.4c-.54-.06-.88-.39-1-1,.69-1.02,1.36-2.02,2-3,2.12-3.51,3.95-7.17,5.5-11,.42,6.09-1.74,11.09-6.5,15Z"/><path class="cls-48" d="m208.72,166.4c-6.01.2-12.01.53-18,1,3.57-1.4,7.4-2.07,11.5-2,2.36,0,4.53.34,6.5,1Z"/><path class="cls-69" d="m121.72,166.4h1c-.64.98-1.31,1.98-2,3,.12.61.46.94,1,1-1.19.86-2.35,1.86-3.5,3,.11-1.27-.06-2.27-.5-3,1-1.67,2.33-3,4-4Z"/><path class="cls-66" d="m246.72,167.4v6c2.56-.3,4.89.03,7,1-2.42-.21-4.75.13-7,1-1.3-2.81-1.3-5.48,0-8Z"/><path class="cls-60" d="m196.72,176.4c-4.86-.32-9.53.01-14,1-4.39.04-4.73-.46-1-1.5,5.18-.82,10.18-.65,15,.5Z"/><path class="cls-49" d="m82.72,174.4c-.76.77-1.76,1.27-3,1.5,4.85.17,9.52.67,14,1.5-7.05,0-14.05.16-21,.5,3.06-2.04,6.4-3.2,10-3.5Z"/><path class="cls-56" d="m25.72,245.4c-2.67-7-5.33-14-8-21,0-.67.33-1,1-1,2.25,3.48,4.75,6.82,7.5,10-.76-4.55-2.43-8.89-5-13-1.32-2.93-1.99-5.93-2-9,1.85,4.52,4.52,8.52,8,12-3.35-10.89-6.85-21.89-10.5-33-2.78-2.81-6.11-3.64-10-2.5,2.81.6,5.31,1.77,7.5,3.5,1.27,3.89,1.77,7.89,1.5,12-.67,3.67-1.33,7.33-2,11-3.95-9.79-7.28-19.79-10-30,2.1-3.43,5.1-5.76,9-7,4.88,2.02,9.38,4.69,13.5,8,3.66,17.29,5.83,34.79,6.5,52.5,1.82,7.03-.51,9.53-7,7.5Z"/><path class="cls-15" d="m82.72,174.4c-3.6.3-6.94,1.46-10,3.5,6.95-.34,13.95-.51,21-.5,5.95-.37,9.62,2.3,11,8-1.96-1.81-4.29-2.81-7-3,.35,3.58-.32,6.92-2,10-.44-.07-.77.1-1,.5.67.33,1.33.67,2,1-6.26,1.32-12.59,1.82-19,1.5,2.03-.47,3.7-1.47,5-3h-1c-1.29-.56-2.12-1.56-2.5-3-.5-2.31-.66-4.64-.5-7-4.69-.99-8.36.35-11,4-.66-1.15-.83-2.48-.5-4-.91.83-1.58,1.83-2,3-.4-.23-.57-.56-.5-1,3.83-8.46,10.49-12.46,20-12,2,.17,4,.33,6,.5-2.75.27-5.42.77-8,1.5Z"/><path class="cls-72" d="m236.72,222.4c4.08-3.8,6.91-8.47,8.5-14-1.05,7.81-3.72,15.14-8,22-.67,1-.67,2,0,3,6.16-5.65,9.66-12.65,10.5-21,1.06-5.17,1.06-10.51,0-16,.44-4.94,3.1-7.77,8-8.5-3.68-1.03-6.85-.19-9.5,2.5-2.35,8.41-4.85,16.75-7.5,25-.36-7.81-.36-15.81,0-24,1.39-5.64,4.39-10.14,9-13.5,6.18-.4,10.18,2.43,12,8.5-6.79,20.2-14.45,40.03-23,59.5-1.29.49-2.63.66-4,.5.87-8.11,2.2-16.11,4-24Z"/><path class="cls-21" d="m182.72,177.4c4.47-.99,9.14-1.32,14-1,4.47,2.08,8.47,4.91,12,8.5-.81.31-1.48.81-2,1.5,1.13,1.12,1.8,2.46,2,4-2.13-1.63-4.13-3.46-6-5.5-2.31-.5-4.64-.66-7-.5.17,3.02,0,6.02-.5,9l-2.5,2.5c1.97.49,3.97.66,6,.5-3.39,1.47-7.05,2.14-11,2-4.23.22-7.56-.45-10-2,1.37.16,2.71-.01,4-.5-3.37-2.7-4.7-6.2-4-10.5-1.37-.16-2.71.01-4,.5-1.87,2.04-3.87,3.87-6,5.5,1.29-2.91,2.29-5.91,3-9,9.51-2.85,19.18-3.68,29-2.5-5.45-2.12-11.12-2.95-17-2.5Z"/><path class="cls-43" d="m83.72,187.4c-1,.33-1.67,1-2,2-1.94-1.51-2.44-3.51-1.5-6,1.39-1.05,2.89-1.22,4.5-.5-.88,1.36-1.21,2.86-1,4.5Z"/><path class="cls-8" d="m82.72,192.4v-1c1.68.21,2.68-.45,3-2,3.45,1.43,5.78.27,7-3.5-1.34-2.72-.34-3.89,3-3.5.43,9.3-3.91,12.63-13,10Z"/><path class="cls-78" d="m104.72,185.4c1.29,1.83,2.29,3.83,3,6-3.98.52-7.98.85-12,1,1.68-3.08,2.35-6.42,2-10,2.71.19,5.04,1.19,7,3Z"/><path class="cls-76" d="m81.72,192.4c-3.52,1.12-7.18,1.12-11,0-2.89.47-4.89-.53-6-3,1.33-.67,2.33-1.67,3-3,2.64-3.65,6.31-4.99,11-4-.16,2.36,0,4.69.5,7,.38,1.44,1.21,2.44,2.5,3Z"/><path class="cls-74" d="m67.72,186.4c-.67,1.33-1.67,2.33-3,3-.99-1.83-.99-3.5,0-5-.07.44.1.77.5,1,.42-1.17,1.09-2.17,2-3-.33,1.52-.16,2.85.5,4Z"/><path class="cls-7" d="m183.72,190.4c-1.53-.07-2.53.59-3,2-1.31-2.39-1.31-4.89,0-7.5,1.44-.78,2.78-.61,4,.5-.81,1.57-1.14,3.24-1,5Z"/><path class="cls-10" d="m182.72,194.4c1.53.07,2.53-.59,3-2,4.91-.03,6.24-2.37,4-7,1.22-1.11,2.56-1.28,4-.5,2.56,6.45.4,10.28-6.5,11.5-1.88-.02-3.38-.69-4.5-2Z"/><path class="cls-58" d="m208.72,190.4c.45.96,1.12,1.79,2,2.5l-1,1c-3.78.92-7.45,1.75-11,2.5-2.03.16-4.03,0-6-.5l2.5-2.5c.5-2.98.67-5.98.5-9,2.36-.16,4.69,0,7,.5,1.87,2.04,3.87,3.87,6,5.5Z"/><path class="cls-53" d="m177.72,196.4c-2.13-.81-4.46-1.31-7-1.5-1.5-.58-2.83-1.42-4-2.5.12-.61.46-.94,1-1,2.13-1.63,4.13-3.46,6-5.5,1.29-.49,2.63-.66,4-.5-.7,4.3.63,7.8,4,10.5-1.29.49-2.63.66-4,.5Z"/><path class="cls-77" d="m83.72,187.4c1,.33,1.67,1,2,2-.32,1.55-1.32,2.21-3,2-.84-.34-1.17-1.01-1-2,.33-1,1-1.67,2-2Z"/><path class="cls-57" d="m183.72,190.4c1,.33,1.67,1,2,2-.47,1.41-1.47,2.07-3,2-1-.33-1.67-1-2-2,.47-1.41,1.47-2.07,3-2Z"/><path class="cls-26" d="m18.72,223.4c-2.29-6.43-3.29-13.1-3-20,.27-4.11-.23-8.11-1.5-12-2.19-1.73-4.69-2.9-7.5-3.5,3.89-1.14,7.22-.31,10,2.5,3.65,11.11,7.15,22.11,10.5,33-3.48-3.48-6.15-7.48-8-12,.01,3.07.68,6.07,2,9,2.57,4.11,4.24,8.45,5,13-2.75-3.18-5.25-6.52-7.5-10Z"/><path class="cls-51" d="m118.72,187.4c-.67,4.33-1.33,8.67-2,13-.33-5.04,0-10.04,1-15,.8.46,1.13,1.12,1,2Z"/><path class="cls-20" d="m247.72,196.4c-.56,5.15-.56,10.48,0,16-.84,8.35-4.34,15.35-10.5,21-.67-1-.67-2,0-3,4.28-6.86,6.95-14.19,8-22-1.59,5.53-4.42,10.2-8.5,14-1.29-4.1-1.29-8.1,0-12-.17,3.35,0,6.68.5,10,.61-1.65,1.11-3.32,1.5-5,2.65-8.25,5.15-16.59,7.5-25,2.65-2.69,5.82-3.53,9.5-2.5-4.9.73-7.56,3.56-8,8.5Z"/><path class="cls-44" d="m70.72,192.4c3.82,1.12,7.48,1.12,11,0h1c-1.3,1.53-2.97,2.53-5,3-2.66-.43-4.99-1.43-7-3Z"/><path class="cls-33" d="m198.72,201.4c1.6-.27,2.93.07,4,1-12.91,1.54-25.25-.63-37-6.5,6.68,1.34,13.34,3,20,5,4.32.5,8.65.67,13,.5Z"/><path class="cls-51" d="m202.72,202.4c-1.07-.93-2.4-1.27-4-1,3.8-1.28,7.8-1.78,12-1.5-2.27,2.02-4.94,2.86-8,2.5Z"/><path class="cls-61" d="m247.72,196.4c1.06,5.49,1.06,10.83,0,16-.56-5.52-.56-10.85,0-16Z"/><path class="cls-12" d="m107.72,201.4c.88-.13,1.54.2,2,1-3.27,3.59-7.27,4.76-12,3.5,2.29-.82,4.62-1.49,7-2,1.44-.38,2.44-1.21,3-2.5Z"/><path class="cls-16" d="m118.72,187.4c.86,5.31,1.03,10.65.5,16-4.49,4.66-9.66,8.33-15.5,11-.44.07-.77-.1-1-.5,1.54-1.37,2.88-2.87,4-4.5,3.96-2.29,7.29-5.29,10-9,.67-4.33,1.33-8.67,2-13Z"/><path class="cls-46" d="m238.72,191.4c-.36,8.19-.36,16.19,0,24-.39,1.68-.89,3.35-1.5,5-.5-3.32-.67-6.65-.5-10,.09-6.54.75-12.87,2-19Z"/><path class="cls-65" d="m32.72,193.4c1.62,9.12,2.29,18.45,2,28-1.16-9.15-1.82-18.48-2-28Z"/><path class="cls-68" d="m162.72,207.4c4.54,1.61,8.88,3.77,13,6.5,3.75.26,7.42.93,11,2-2.88-.3-5.71-.13-8.5.5-2.89-1.2-5.73-2.53-8.5-4-.59.21-1.09.54-1.5,1-2.73-1.26-4.56-3.26-5.5-6Z"/><path class="cls-61" d="m106.72,209.4c-1.12,1.63-2.46,3.13-4,4.5.23.4.56.57,1,.5-3.31.1-6.65,1.27-10,3.5-2,.67-4,.67-6,0,6.92-1.8,13.25-4.63,19-8.5Z"/><path class="cls-17" d="m3.72,180.4v4c2.72,10.21,6.05,20.21,10,30,1.16,3.48,2.49,6.82,4,10,2.67,7,5.33,14,8,21-1,.33-1.67,1-2,2C15.22,228.08,7.38,208.41.22,188.4c-.74-3.52.43-6.18,3.5-8Z"/><path class="cls-45" d="m15.72,203.4c-.29,6.9.71,13.57,3,20-.67,0-1,.33-1,1-1.51-3.18-2.84-6.52-4-10,.67-3.67,1.33-7.33,2-11Z"/><path class="cls-64" d="m131.72,219.4c.7,2.96.2,5.96-1.5,9-.33-.67-.67-1.33-1-2-1.3,3.28-2.97,6.28-5,9-.48-2.41-.15-4.75,1-7,1.73-1.73,3.06-3.73,4-6,.33,1,.67,2,1,3,.51-2.02,1.01-4.02,1.5-6Z"/><path class="cls-35" d="m231.72,231.4c-.18,3.23-.84,6.23-2,9-.29-3.33.38-6.33,2-9Z"/><path class="cls-40" d="m53.72,225.4c2.06,3.11,3.89,6.44,5.5,10,.33-.67.67-1.33,1-2,1.84,3.52,2.84,7.18,3,11-1.2-2.59-2.2-5.26-3-8-.32,1.8-.98,2.13-2,1-1.8-3.92-3.3-7.92-4.5-12Z"/><path class="cls-26" d="m96.72,245.4c2.15.2,2.31,1.2.5,3-5.38,5.71-10.38,11.71-15,18-.37-4.15.3-8.15,2-12,3.97-3.39,8.14-6.39,12.5-9Z"/><path class="cls-30" d="m144.72,253.4c-.74.13-1.41-.04-2-.5,1.54-1.37,2.88-2.87,4-4.5.96-.45,1.79-1.12,2.5-2-.47,2.92-1.97,5.26-4.5,7Z"/><path class="cls-67" d="m161.72,244.4c.72.42,1.22,1.08,1.5,2,.5,2.98.66,5.98.5,9h-3c.76-1.39,1.43-2.89,2-4.5-.58-2.14-.91-4.3-1-6.5Z"/><path class="cls-4" d="m35.72,225.4c4.73,10.36,8.56,21.03,11.5,32-3.94-8.22-7.61-16.55-11-25-.49,1.29-.66,2.63-.5,4-1.21-3.53-1.21-7.2,0-11Z"/><path class="cls-59" d="m119.72,244.4c.15,3.46.31,7.12.5,11,.46,1.43,1.3,2.6,2.5,3.5-1.5.51-2.66,0-3.5-1.5-2.13-4.51-1.97-8.84.5-13Z"/><path class="cls-11" d="m146.72,248.4c-1.12,1.63-2.46,3.13-4,4.5.59.46,1.26.63,2,.5-.71.9-1.71,1.24-3,1-.16-1.7,0-3.37.5-5,1.83-1.66,3.16-3.66,4-6,.65-1.2,1.15-1.2,1.5,0-.67,1.33-1.33,2.67-2,4,.12.61.46.94,1,1Z"/><path class="cls-42" d="m66.72,243.4c.72.42,1.22,1.08,1.5,2,.89,3.65,1.22,7.32,1,11-1.9-4.13-2.73-8.47-2.5-13Z"/><path class="cls-20" d="m124.72,253.4c4.41-.3,8.41.87,12,3.5-3.67.67-7.33.67-11,0-2.23-.7-2.56-1.87-1-3.5Z"/><path class="cls-62" d="m236.72,249.4c-1.42.95-3.08,1.28-5,1,.33,2.73-.34,5.06-2,7,.33-2.67.67-5.33,1-8h6Z"/><path class="cls-34" d="m147.72,253.4c2.03-.16,4.03,0,6,.5.46.41.79.91,1,1.5-3.93,1.15-7.93,1.99-12,2.5-.64,3.79-1.3,7.62-2,11.5-1.57.81-3.24,1.14-5,1-.34-3.81.16-7.47,1.5-11,3.61-1.89,7.11-3.89,10.5-6Z"/><path class="cls-39" d="m33.72,253.4c1.54,2.34,2.21,5.01,2,8-1.27-2.4-1.93-5.07-2-8Z"/><path class="cls-37" d="m222.72,254.4v2c-1.18,3.36-3.02,6.36-5.5,9,1.26-3.86,3.1-7.53,5.5-11Z"/><path class="cls-73" d="m181.72,259.4c5.75.46,10.25,3.13,13.5,8-.58,1.87-1.24,3.87-2,6-3.34-5.17-7.18-9.83-11.5-14Z"/><path class="cls-36" d="m166.72,277.4c-5.22-1.4-10.55-2.07-16-2-13.67.64-27.34,1.31-41,2,1.45-.8,3.12-1.3,5-1.5,15.33-.89,30.66-1.23,46-1,2.22.57,4.22,1.4,6,2.5Z"/><path class="cls-13" d="m172.72,283.4c-1.28-.28-2.28-.95-3-2-22.08-.91-44.08-1.24-66-1v-2c1.93-.65,3.93-.98,6-1,13.66-.69,27.33-1.36,41-2,5.45-.07,10.78.6,16,2h11c-.15-2.44.69-3.11,2.5-2,1.37,2.2,1.71,4.53,1,7-3.34-4.05-6.17-3.72-8.5,1Z"/><path class="cls-55" d="m103.72,280.4c21.92-.24,43.92.09,66,1,.22,1.17-.11,2.17-1,3-2.48,1.4-5.15,2.23-8,2.5,3.9.81,4.56,2.47,2,5-2.29.82-4.62,1.49-7,2-13.68.83-27.35.67-41-.5-5.39-1.55-6.05-4.05-2-7.5-4.35-.33-8.02-1.99-11-5,.59-.46,1.26-.63,2-.5Z"/><path class="cls-32" d="m86.72,294.4c-2.2-4.38-5.03-8.38-8.5-12-.67-.67-.67-1.33,0-2,3.3.86,6.3,2.86,9,6,.83,1.67,1.67,3.33,2.5,5-1.33,1.33-1.33,2.67,0,4-.17.33-.33.67-.5,1-.71-.88-1.54-1.55-2.5-2Z"/><path class="cls-63" d="m78.72,289.4c2.33,1.67,4.33,3.67,6,6-.65.59-1.32,1.26-2,2-.61-.12-.94-.46-1-1,1.02-.4,1.19-1.06.5-2l-3-3c-.4.23-.57.56-.5,1-2.52-1.1-3.52-2.77-3-5,1.02.69,2.02,1.36,3,2Z"/><path class="cls-12" d="m86.72,294.4c.09,2.2-.57,2.53-2,1-1.67-2.33-3.67-4.33-6-6-.53-1.35-.7-2.68-.5-4,2.33,3.5,5.17,6.5,8.5,9Z"/><path class="cls-75" d="m81.72,296.4c-1-1.33-2-2.67-3-4-.07-.44.1-.77.5-1l3,3c.69.94.52,1.6-.5,2Z"/><path class="cls-28" d="m103.72,278.4v2c-.74-.13-1.41.04-2,.5,2.98,3.01,6.65,4.67,11,5-4.05,3.45-3.39,5.95,2,7.5,13.65,1.17,27.32,1.33,41,.5,2.38-.51,4.71-1.18,7-2,2.56-2.53,1.9-4.19-2-5,2.85-.27,5.52-1.1,8-2.5.89-.83,1.22-1.83,1-3,.72,1.05,1.72,1.72,3,2-3.5,3.67-6.83,7.5-10,11.5-1.54.29-2.88.96-4,2-14,.67-28,.67-42,0-7.82-3.49-14.16-8.82-19-16-1.87-.71-3.37-.21-4.5,1.5-1.47-4.71-.14-8.38,4-11,.5,2.31.66,4.64.5,7h6Z"/><path class="cls-23" d="m134.72,309.4v1c-5.2-.32-10.2.01-15,1-.79-.28-1.46-.78-2-1.5,5.66-.5,11.32-.67,17-.5Z"/><path class="cls-52" d="m134.72,310.4v-1c6.37-.33,12.7,0,19,1-.12.61-.46.94-1,1-5.81-.99-11.81-1.32-18-1Z"/><path class="cls-14" d="m134.72,310.4c6.19-.32,12.19.01,18,1-2.23,2.39-4.9,4.22-8,5.5l6,3c-10.97,1.68-21.97,1.85-33,.5,1.99-2,4.33-3.5,7-4.5-2.16-1-3.83-2.5-5-4.5,4.8-.99,9.8-1.32,15-1Z"/><path class="cls-80" d="m437.97,201.16l-44-110.4h-31.4v148h31.4v-41.4c0-8.13-.1-15.4-.3-21.8-.2-6.4-.77-12.33-1.7-17.8l31.2,81h29.6l31.4-81c-.4,2.8-.7,5.5-.9,8.1-.2,2.6-.37,5.63-.5,9.1-.13,3.47-.2,7.8-.2,13v50.8h31.4V90.76h-31.8l-44.2,110.4Z"/><path class="cls-80" d="m602.57,213.36c-3.87,2-8.73,3-14.6,3-8,0-13.9-2.23-17.7-6.7-2.63-3.09-4.35-7.34-5.16-12.76l72.66-.34v-7.8c0-10.93-2.07-20.37-6.2-28.3-4.13-7.93-10-14.07-17.6-18.4-7.6-4.33-16.67-6.5-27.2-6.5s-18.87,2.27-26.6,6.8c-7.73,4.53-13.77,10.77-18.1,18.7-4.33,7.93-6.5,17.1-6.5,27.5s2.23,19.37,6.7,27.3c4.46,7.93,10.6,14.17,18.4,18.7s16.7,6.8,26.7,6.8c13.73,0,25.2-3.3,34.4-9.9,9.2-6.6,14.67-15.43,16.4-26.5h-28.2c-1.07,3.6-3.53,6.4-7.4,8.4Zm-28.3-49.8c3.27-2,7.5-3,12.7-3,6.27,0,11.2,1.57,14.8,4.7,3.6,3.13,5.4,7.37,5.4,12.7h-41.64c.37-1.86.85-3.56,1.44-5.1,1.6-4.2,4.03-7.3,7.3-9.3Z"/><rect class="cls-80" x="655.97" y="138.76" width="30.8" height="100"/><path class="cls-80" d="m671.17,123.16c4.8,0,8.9-1.7,12.3-5.1,3.4-3.4,5.1-7.57,5.1-12.5s-1.7-9.07-5.1-12.4c-3.4-3.33-7.5-5-12.3-5s-9.1,1.67-12.5,5c-3.4,3.33-5.1,7.47-5.1,12.4s1.7,9.1,5.1,12.5c3.4,3.4,7.57,5.1,12.5,5.1Z"/><path class="cls-80" d="m725.37,88.16c-4.93,0-9.1,1.67-12.5,5-3.4,3.33-5.1,7.47-5.1,12.4s1.7,9.1,5.1,12.5c3.4,3.4,7.57,5.1,12.5,5.1s8.9-1.7,12.3-5.1c3.4-3.4,5.1-7.57,5.1-12.5s-1.7-9.07-5.1-12.4c-3.4-3.33-7.5-5-12.3-5Z"/><path class="cls-80" d="m709.97,248.56c0,4.4-.67,7.67-2,9.8-1.33,2.13-3.93,3.2-7.8,3.2-1.47,0-2.73-.07-3.8-.2-1.07-.13-2.33-.47-3.8-1l-5,27.2c3.6,1.07,6.57,1.73,8.9,2,2.33.27,4.57.4,6.7.4,12,0,21.27-3.43,27.8-10.3,6.53-6.87,9.8-15.9,9.8-27.1v-113.8h-30.8v109.8Z"/><path class="cls-80" d="m825.56,213.36c-3.87,2-8.73,3-14.6,3-8,0-13.9-2.23-17.7-6.7-2.63-3.09-4.35-7.34-5.16-12.76l72.66-.34v-7.8c0-10.93-2.07-20.37-6.2-28.3-4.13-7.93-10-14.07-17.6-18.4-7.6-4.33-16.67-6.5-27.2-6.5s-18.87,2.27-26.6,6.8c-7.73,4.53-13.77,10.77-18.1,18.7-4.33,7.93-6.5,17.1-6.5,27.5s2.23,19.37,6.7,27.3c4.46,7.93,10.6,14.17,18.4,18.7s16.7,6.8,26.7,6.8c13.73,0,25.2-3.3,34.4-9.9,9.2-6.6,14.67-15.43,16.4-26.5h-28.2c-1.07,3.6-3.53,6.4-7.4,8.4Zm-28.3-49.8c3.27-2,7.5-3,12.7-3,6.27,0,11.2,1.57,14.8,4.7,3.6,3.13,5.4,7.37,5.4,12.7h-41.64c.37-1.86.85-3.56,1.44-5.1,1.6-4.2,4.03-7.3,7.3-9.3Z"/><path class="cls-80" d="m935.96,137.36c-8.13,0-14.57,2.17-19.3,6.5-3.06,2.8-5.4,6.1-7.04,9.88l-1.66-14.78h-29v99.8h30.8v-43.4c0-9.87,2.5-16.93,7.5-21.2,5-4.27,11.9-6.4,20.7-6.4h9.8v-29c-2.13-.53-4.17-.9-6.1-1.1-1.93-.2-3.83-.3-5.7-.3Z"/><polygon class="cls-79" points="945.76 120.76 987.76 120.76 987.76 238.76 1020.17 238.76 1020.17 120.76 1062.17 120.76 1062.17 90.76 945.76 90.76 945.76 120.76"/><path class="cls-79" d="m1139.36,135.56c-6.53,0-12.5,1.2-17.9,3.6-5.4,2.4-9.63,5.73-12.7,10v-61.2h-31v150.8h30.8v-54.8c0-4.13.83-7.73,2.5-10.8,1.67-3.07,4-5.43,7-7.1,3-1.67,6.5-2.5,10.5-2.5,3.6,0,6.7.87,9.3,2.6,2.6,1.73,4.63,4.13,6.1,7.2,1.47,3.07,2.2,6.73,2.2,11v54.4h30.8v-61.8c0-13.07-3.3-23.23-9.9-30.5-6.6-7.27-15.83-10.9-27.7-10.9Z"/><path class="cls-79" d="m1260.56,213.36c-3.87,2-8.73,3-14.6,3-8,0-13.9-2.23-17.7-6.7-2.63-3.09-4.35-7.34-5.16-12.76l72.66-.34v-7.8c0-10.93-2.07-20.37-6.2-28.3-4.13-7.93-10-14.07-17.6-18.4-7.6-4.33-16.67-6.5-27.2-6.5s-18.87,2.27-26.6,6.8c-7.73,4.53-13.77,10.77-18.1,18.7-4.33,7.93-6.5,17.1-6.5,27.5s2.23,19.37,6.7,27.3c4.46,7.93,10.6,14.17,18.4,18.7s16.7,6.8,26.7,6.8c13.73,0,25.2-3.3,34.4-9.9,9.2-6.6,14.67-15.43,16.4-26.5h-28.2c-1.07,3.6-3.53,6.4-7.4,8.4Zm-28.3-49.8c3.27-2,7.5-3,12.7-3,6.27,0,11.2,1.57,14.8,4.7,3.6,3.13,5.4,7.37,5.4,12.7h-41.64c.37-1.86.85-3.56,1.44-5.1,1.6-4.2,4.03-7.3,7.3-9.3Z"/><path class="cls-79" d="m1392.16,142.36c-8.27-4.4-17.73-6.6-28.4-6.6s-20.17,2.2-28.5,6.6c-8.33,4.4-14.87,10.57-19.6,18.5-4.73,7.93-7.1,17.17-7.1,27.7s2.37,19.73,7.1,27.6c4.73,7.87,11.27,14,19.6,18.4,8.33,4.4,17.83,6.6,28.5,6.6s20.13-2.2,28.4-6.6c8.27-4.4,14.77-10.53,19.5-18.4,4.73-7.87,7.1-17.07,7.1-27.6s-2.37-19.77-7.1-27.7c-4.73-7.93-11.23-14.1-19.5-18.5Zm-7.4,59.3c-2,3.8-4.8,6.73-8.4,8.8-3.6,2.07-7.8,3.1-12.6,3.1s-9-1.03-12.6-3.1c-3.6-2.07-6.43-5-8.5-8.8-2.07-3.8-3.1-8.23-3.1-13.3s1.03-9.47,3.1-13.2c2.07-3.73,4.9-6.63,8.5-8.7,3.6-2.07,7.8-3.1,12.6-3.1s9,1.03,12.6,3.1c3.6,2.07,6.4,4.97,8.4,8.7,2,3.73,3,8.13,3,13.2s-1,9.5-3,13.3Z"/><path class="cls-79" d="m1493.56,137.36c-8.13,0-14.57,2.17-19.3,6.5-3.06,2.8-5.4,6.1-7.04,9.88l-1.66-14.78h-29v99.8h30.8v-43.4c0-9.87,2.5-16.93,7.5-21.2,5-4.27,11.9-6.4,20.7-6.4h9.8v-29c-2.13-.53-4.17-.9-6.1-1.1-1.93-.2-3.83-.3-5.7-.3Z"/><path class="cls-79" d="m1536.16,88.16c-4.93,0-9.1,1.67-12.5,5-3.4,3.33-5.1,7.47-5.1,12.4s1.7,9.1,5.1,12.5c3.4,3.4,7.57,5.1,12.5,5.1s8.9-1.7,12.3-5.1c3.4-3.4,5.1-7.57,5.1-12.5s-1.7-9.07-5.1-12.4c-3.4-3.33-7.5-5-12.3-5Z"/><rect class="cls-79" x="1520.96" y="138.76" width="30.8" height="100"/><path class="cls-79" d="m1643.96,204.96c-1.07,3.6-3.53,6.4-7.4,8.4-3.87,2-8.73,3-14.6,3-8,0-13.9-2.23-17.7-6.7-2.63-3.09-4.35-7.34-5.16-12.76l72.66-.34v-7.8c0-10.93-2.07-20.37-6.2-28.3-4.13-7.93-10-14.07-17.6-18.4-7.6-4.33-16.67-6.5-27.2-6.5s-18.87,2.27-26.6,6.8c-7.73,4.53-13.77,10.77-18.1,18.7-4.33,7.93-6.5,17.1-6.5,27.5s2.23,19.37,6.7,27.3c4.46,7.93,10.6,14.17,18.4,18.7s16.7,6.8,26.7,6.8c13.73,0,25.2-3.3,34.4-9.9,9.2-6.6,14.67-15.43,16.4-26.5h-28.2Zm-35.7-41.4c3.27-2,7.5-3,12.7-3,6.27,0,11.2,1.57,14.8,4.7,3.6,3.13,5.4,7.37,5.4,12.7h-41.64c.37-1.86.85-3.56,1.44-5.1,1.6-4.2,4.03-7.3,7.3-9.3Z"/></svg>